<svg xmlns="http://www.w3.org/2000/svg" xmlns:xlink="http://www.w3.org/1999/xlink" viewBox="0,0,256,256" width="32px" height="32px" fill-rule="nonzero"><g fill="#ffffff" fill-rule="nonzero" stroke="none" stroke-width="1" stroke-linecap="butt" stroke-linejoin="miter" stroke-miterlimit="10" stroke-dasharray="" stroke-dashoffset="0" font-family="none" font-weight="none" font-size="none" text-anchor="none" style="mix-blend-mode: normal"><g transform="scale(8,8)"><path d="M16,4c-6.61558,0 -12,5.38443 -12,12c0,6.61557 5.38442,12 12,12c6.61558,0 12,-5.38443 12,-12c0,-6.61557 -5.38442,-12 -12,-12zM16,6c1.93368,0 3.73002,0.55473 5.25781,1.5l-5.25781,5.25781l-5.25781,-5.25781c1.52779,-0.94527 3.32413,-1.5 5.25781,-1.5zM9.14063,8.72656l6.85938,6.85938l6.85938,-6.85938c0.48674,0.45909 0.92781,0.96524 1.31445,1.51367l-7.17383,7.17383v8.53711c-0.32923,0.03253 -0.66202,0.04883 -1,0.04883c-0.33798,0 -0.67077,-0.0163 -1,-0.04883v-8.53711l-7.17383,-7.17383c0.38664,-0.54843 0.82771,-1.05458 1.31445,-1.51367zM6.81055,12.05273l6.18945,6.18945v7.30078c-4.06273,-1.27032 -7,-5.05412 -7,-9.54297c0,-1.40391 0.29136,-2.73639 0.81055,-3.94727zM25.18945,12.05273c0.51918,1.21087 0.81055,2.54336 0.81055,3.94727c0,4.48885 -2.93727,8.27265 -7,9.54297v-7.30078z"></path></g></g></svg>