<svg xmlns="http://www.w3.org/2000/svg" xmlns:xlink="http://www.w3.org/1999/xlink" viewBox="0,0,256,256" width="50px" height="50px" fill-rule="nonzero"><g transform=""><g fill="#ffffff" fill-rule="nonzero" stroke="none" stroke-width="1" stroke-linecap="butt" stroke-linejoin="miter" stroke-miterlimit="10" stroke-dasharray="" stroke-dashoffset="0" font-family="none" font-weight="none" font-size="none" text-anchor="none" style="mix-blend-mode: normal"><g transform="scale(5.12,5.12)"><path d="M13,4c-4.95852,0 -9,4.04148 -9,9v24c0,4.95852 4.04148,9 9,9h24c4.95852,0 9,-4.04148 9,-9v-24c0,-4.95852 -4.04148,-9 -9,-9zM13,6h24c3.87748,0 7,3.12252 7,7v24c0,3.87748 -3.12252,7 -7,7h-24c-3.87748,0 -7,-3.12252 -7,-7v-24c0,-3.87748 3.12252,-7 7,-7zM13,11c-1.29167,0 -2.32308,0.50238 -2.99805,1.26172c-0.67497,0.75934 -1.00195,1.75217 -1.00195,2.73828c0,0.98611 0.32698,1.97894 1.00195,2.73828c0.67497,0.75934 1.70638,1.26172 2.99805,1.26172c1.29167,0 2.32308,-0.50238 2.99805,-1.26172c0.67497,-0.75934 1.00195,-1.75217 1.00195,-2.73828c0,-0.98611 -0.32698,-1.97894 -1.00195,-2.73828c-0.67497,-0.75934 -1.70638,-1.26172 -2.99805,-1.26172zM13,12c1.04167,0 1.76026,0.37262 2.25195,0.92578c0.4917,0.55316 0.74805,1.31033 0.74805,2.07422c0,0.76389 -0.25635,1.52106 -0.74805,2.07422c-0.4917,0.55316 -1.21029,0.92578 -2.25195,0.92578c-1.04167,0 -1.76026,-0.37262 -2.25195,-0.92578c-0.4917,-0.55316 -0.74805,-1.31033 -0.74805,-2.07422c0,-0.76389 0.25635,-1.52106 0.74805,-2.07422c0.4917,-0.55316 1.21029,-0.92578 2.25195,-0.92578zM13,13c-1.10457,0 -2,0.89543 -2,2c0,1.10457 0.89543,2 2,2c1.10457,0 2,-0.89543 2,-2c0,-1.10457 -0.89543,-2 -2,-2zM21,14c-0.36064,-0.0051 -0.69608,0.18438 -0.87789,0.49587c-0.18181,0.3115 -0.18181,0.69676 0,1.00825c0.18181,0.3115 0.51725,0.50097 0.87789,0.49587h18c0.36064,0.0051 0.69608,-0.18438 0.87789,-0.49587c0.18181,-0.3115 0.18181,-0.69676 0,-1.00825c-0.18181,-0.3115 -0.51725,-0.50097 -0.87789,-0.49587zM13,21c-1.29167,0 -2.32308,0.50238 -2.99805,1.26172c-0.67497,0.75934 -1.00195,1.75217 -1.00195,2.73828c0,0.98611 0.32698,1.97894 1.00195,2.73828c0.67497,0.75934 1.70638,1.26172 2.99805,1.26172c1.29167,0 2.32308,-0.50238 2.99805,-1.26172c0.67497,-0.75934 1.00195,-1.75217 1.00195,-2.73828c0,-0.98611 -0.32698,-1.97894 -1.00195,-2.73828c-0.67497,-0.75934 -1.70638,-1.26172 -2.99805,-1.26172zM13,22c1.04167,0 1.76026,0.37262 2.25195,0.92578c0.4917,0.55316 0.74805,1.31033 0.74805,2.07422c0,0.76389 -0.25635,1.52106 -0.74805,2.07422c-0.4917,0.55316 -1.21029,0.92578 -2.25195,0.92578c-1.04167,0 -1.76026,-0.37262 -2.25195,-0.92578c-0.4917,-0.55316 -0.74805,-1.31033 -0.74805,-2.07422c0,-0.76389 0.25635,-1.52106 0.74805,-2.07422c0.4917,-0.55316 1.21029,-0.92578 2.25195,-0.92578zM13,23c-1.10457,0 -2,0.89543 -2,2c0,1.10457 0.89543,2 2,2c1.10457,0 2,-0.89543 2,-2c0,-1.10457 -0.89543,-2 -2,-2zM21,24c-0.36064,-0.0051 -0.69608,0.18438 -0.87789,0.49587c-0.18181,0.3115 -0.18181,0.69676 0,1.00825c0.18181,0.3115 0.51725,0.50097 0.87789,0.49587h18c0.36064,0.0051 0.69608,-0.18438 0.87789,-0.49587c0.18181,-0.3115 0.18181,-0.69676 0,-1.00825c-0.18181,-0.3115 -0.51725,-0.50097 -0.87789,-0.49587zM13,31c-1.29167,0 -2.32308,0.50238 -2.99805,1.26172c-0.67497,0.75934 -1.00195,1.75217 -1.00195,2.73828c0,0.98611 0.32698,1.97894 1.00195,2.73828c0.67497,0.75934 1.70638,1.26172 2.99805,1.26172c1.29167,0 2.32308,-0.50238 2.99805,-1.26172c0.67497,-0.75934 1.00195,-1.75217 1.00195,-2.73828c0,-0.98611 -0.32698,-1.97894 -1.00195,-2.73828c-0.67497,-0.75934 -1.70638,-1.26172 -2.99805,-1.26172zM13,32c1.04167,0 1.76026,0.37262 2.25195,0.92578c0.4917,0.55316 0.74805,1.31033 0.74805,2.07422c0,0.76389 -0.25635,1.52106 -0.74805,2.07422c-0.4917,0.55316 -1.21029,0.92578 -2.25195,0.92578c-1.04167,0 -1.76026,-0.37262 -2.25195,-0.92578c-0.4917,-0.55316 -0.74805,-1.31033 -0.74805,-2.07422c0,-0.76389 0.25635,-1.52106 0.74805,-2.07422c0.4917,-0.55316 1.21029,-0.92578 2.25195,-0.92578zM13,33c-1.10457,0 -2,0.89543 -2,2c0,1.10457 0.89543,2 2,2c1.10457,0 2,-0.89543 2,-2c0,-1.10457 -0.89543,-2 -2,-2zM21,34c-0.36064,-0.0051 -0.69608,0.18438 -0.87789,0.49587c-0.18181,0.3115 -0.18181,0.69676 0,1.00825c0.18181,0.3115 0.51725,0.50097 0.87789,0.49587h18c0.36064,0.0051 0.69608,-0.18438 0.87789,-0.49587c0.18181,-0.3115 0.18181,-0.69676 0,-1.00825c-0.18181,-0.3115 -0.51725,-0.50097 -0.87789,-0.49587z"></path></g></g></g></svg>